HIERARCHY
ROOT Hips
{
	OFFSET 0.000000 0.000000 0.000000
	CHANNELS 6 Xposition Yposition Zposition Zrotation Yrotation Xrotation 
	JOINT LHipJoint
	{
		OFFSET 0.000000 0.000000 0.000000
		CHANNELS 3 Zrotation Yrotation Xrotation
		JOINT LeftUpLeg
		{
			OFFSET 1.363060 -1.794630 0.839290
			CHANNELS 3 Zrotation Yrotation Xrotation
			JOINT LeftLeg
			{
				OFFSET 2.448110 -6.726130 0.000000
				CHANNELS 3 Zrotation Yrotation Xrotation
				JOINT LeftFoot
				{
					OFFSET 2.562200 -7.039590 0.000000
					CHANNELS 3 Zrotation Yrotation Xrotation
					JOINT LeftToeBase
					{
						OFFSET 0.157640 -0.433110 2.322550
						CHANNELS 3 Zrotation Yrotation Xrotation
						End Site
						{
							OFFSET 0.000000 0.000000 0.000000
						}
					}
				}
			}
		}
	}
	JOINT RHipJoint
	{
		OFFSET 0.000000 0.000000 0.000000
		CHANNELS 3 Zrotation Yrotation Xrotation
		JOINT RightUpLeg
		{
			OFFSET -1.305520 -1.794630 0.839290
			CHANNELS 3 Zrotation Yrotation Xrotation
			JOINT RightLeg
			{
				OFFSET -2.542530 -6.985550 0.000000
				CHANNELS 3 Zrotation Yrotation Xrotation
				JOINT RightFoot
				{
					OFFSET -2.568260 -7.056230 0.000000
					CHANNELS 3 Zrotation Yrotation Xrotation
					JOINT RightToeBase
					{
						OFFSET -0.164730 -0.452590 2.363150
						CHANNELS 3 Zrotation Yrotation Xrotation
						End Site
						{
							OFFSET 0.000000 0.000000 0.000000
						}
					}
				}
			}
		}
	}
	JOINT LowerBack
	{
		OFFSET 0.000000 0.000000 0.000000
		CHANNELS 3 Zrotation Yrotation Xrotation
		JOINT Spine
		{
			OFFSET 0.028270 2.035590 -0.193380
			CHANNELS 3 Zrotation Yrotation Xrotation
			JOINT Spine1
			{
				OFFSET 0.056720 2.048850 -0.042750
				CHANNELS 3 Zrotation Yrotation Xrotation
				JOINT Neck
				{
					OFFSET 0.000000 0.000000 0.000000
					CHANNELS 3 Zrotation Yrotation Xrotation
					JOINT Neck1
					{
						OFFSET -0.054170 1.746240 0.172020
						CHANNELS 3 Zrotation Yrotation Xrotation
						JOINT Head
						{
							OFFSET 0.104070 1.761360 -0.123970
							CHANNELS 3 Zrotation Yrotation Xrotation
							End Site
							{
								OFFSET 0.000000 0.000000 0.000000
							}
						}
					}
				}
				JOINT LeftShoulder
				{
					OFFSET 0.000000 0.000000 0.000000
					CHANNELS 3 Zrotation Yrotation Xrotation
					JOINT LeftArm
					{
						OFFSET 3.362410 1.200890 -0.311210
						CHANNELS 3 Zrotation Yrotation Xrotation
						JOINT LeftForeArm
						{
							OFFSET 4.983000 -0.000000 -0.000000
							CHANNELS 3 Zrotation Yrotation Xrotation
							JOINT LeftHand
							{
								OFFSET 3.483560 -0.000000 -0.000000
								CHANNELS 3 Zrotation Yrotation Xrotation
								JOINT LeftFingerBase
								{
									OFFSET 0.000000 0.000000 0.000000
									CHANNELS 3 Zrotation Yrotation Xrotation
									JOINT LeftHandIndex1
									{
										OFFSET 0.715260 -0.000000 -0.000000
										CHANNELS 3 Zrotation Yrotation Xrotation
										End Site
										{
											OFFSET 0.000000 0.000000 0.000000
										}
									}
								}
								JOINT LThumb
								{
									OFFSET 0.000000 0.000000 0.000000
									CHANNELS 3 Zrotation Yrotation Xrotation
									End Site
									{
										OFFSET 0.000000 0.000000 0.000000
									}
								}
							}
						}
					}
				}
				JOINT RightShoulder
				{
					OFFSET 0.000000 0.000000 0.000000
					CHANNELS 3 Zrotation Yrotation Xrotation
					JOINT RightArm
					{
						OFFSET -3.136600 1.374050 -0.404650
						CHANNELS 3 Zrotation Yrotation Xrotation
						JOINT RightForeArm
						{
							OFFSET -5.241900 -0.000000 -0.000000
							CHANNELS 3 Zrotation Yrotation Xrotation
							JOINT RightHand
							{
								OFFSET -3.444170 -0.000000 -0.000000
								CHANNELS 3 Zrotation Yrotation Xrotation
								JOINT RightFingerBase
								{
									OFFSET 0.000000 0.000000 0.000000
									CHANNELS 3 Zrotation Yrotation Xrotation
									JOINT RightHandIndex1
									{
										OFFSET -0.622530 -0.000000 -0.000000
										CHANNELS 3 Zrotation Yrotation Xrotation
										End Site
										{
											OFFSET 0.000000 0.000000 0.000000
										}
									}
								}
								JOINT RThumb
								{
									OFFSET 0.000000 0.000000 0.000000
									CHANNELS 3 Zrotation Yrotation Xrotation
									End Site
									{
										OFFSET 0.000000 0.000000 0.000000
									}
								}
							}
						}
					}
				}
			}
		}
	}
}
MOTION
Frames: 5
Frame Time: 0.008333
23.120009 17.775244 0.158998 -75.144702 -84.070218 82.307819 -5.498965 -3.924215 -0.101409 -0.092835 0.159252 -11.582416 2.078721 12.315780 32.149552 -3.823347 12.316340 -4.157171 1.787300 -8.408300 -23.961300 4.578089 5.952428 -3.511752 5.205072 7.826557 -25.357899 -3.140646 -14.195796 37.868148 4.656308 -15.361342 -6.125902 -1.199900 -6.950200 19.568000 7.212940 -0.103050 0.724078 1.025092 -0.454752 -1.202692 -2.786150 -0.138413 3.485593 -5.748239 -1.966911 -3.106212 9.184815 -3.023368 -6.150657 3.480900 -1.631300 -3.389100 -8.797505 -8.394267 1.497610 -71.512415 -7.905152 43.399517 15.515889 -26.176480 -5.015005 0.988508 1.242242 3.829890 19.293667 -22.034075 -7.574000 -7.125000 0.000000 0.000000 -6.661100 5.455300 6.039500 11.579238 7.793152 1.792446 61.403486 8.997500 20.097632 -16.140814 27.711103 -6.922192 2.055543 2.642306 -10.101391 -15.443113 -40.253000 12.169300 7.125000 0.000000 0.000000 29.743200 -71.413700 -19.224300 
23.175355 17.764460 0.182545 -80.871745 -85.211777 88.360443 -5.651893 -4.094122 -0.092194 -1.128727 0.449101 -12.173312 2.060481 12.388964 32.303513 -3.722974 12.131306 -4.309501 1.613700 -8.010200 -22.745100 4.487823 5.934860 -3.584225 4.071553 8.312358 -25.834561 -3.141264 -14.113819 37.634600 4.781995 -15.655586 -5.771578 -1.127900 -6.745700 18.964100 5.569472 -0.032301 0.666751 0.859613 -0.283231 -1.318434 -2.258973 -0.093418 3.301667 -5.686636 -2.016599 -3.036748 8.800952 -3.084786 -6.256827 3.331300 -1.654700 -3.442400 -8.787354 -8.393587 1.504358 -71.251372 -7.973728 42.701373 15.671407 -26.347560 -5.122056 0.991209 1.252257 3.838175 19.523507 -22.199233 -7.728600 -7.125000 0.000000 0.000000 -6.533800 5.234900 5.950100 11.511923 7.804217 1.743938 62.308842 8.665012 22.035507 -15.970955 27.423487 -6.449478 2.478433 1.811274 -5.251781 -21.315258 -33.957985 14.253100 7.125000 0.000000 0.000000 12.582600 -66.985300 -6.705700 
23.221790 17.755658 0.210934 -86.714345 -86.304382 94.533337 -5.794132 -4.274980 -0.121615 -2.246337 0.318914 -12.662186 2.039320 12.504709 32.551763 -3.836046 12.309856 -4.930991 1.551800 -7.862300 -22.296700 4.406308 5.907911 -3.656636 2.901166 8.595494 -26.254751 -3.145547 -14.011457 37.324493 4.999892 -16.189900 -5.106346 -0.933600 -6.154800 17.234200 4.026171 0.002715 0.156117 0.676790 -0.198024 -1.283714 -1.821442 -0.076854 3.657856 -5.818703 -2.009248 -2.915080 8.636338 -3.076812 -6.593048 3.306000 -1.648800 -3.595100 -8.804451 -8.384640 1.534363 -70.809958 -8.203136 42.222520 15.995667 -26.654225 -5.270574 0.920597 1.280186 3.590646 20.388067 -21.621089 -7.962000 -7.125000 0.000000 0.000000 -5.909600 5.664500 5.326500 11.448845 7.781240 1.717763 63.136062 8.648614 23.592025 -15.766930 27.166644 -6.144719 2.673364 0.992436 -0.026524 -26.570739 -29.165610 15.414500 7.125000 0.000000 0.000000 2.146200 -62.954600 -0.935800 
23.261512 17.739923 0.234481 -97.267105 -87.263529 105.361821 -5.944628 -4.443871 -0.143420 -3.315005 0.126928 -13.061427 2.025923 12.629941 32.826850 -3.998889 12.580490 -5.628530 1.491300 -7.714500 -21.850400 4.310708 5.865517 -3.715111 1.805024 8.948115 -26.542278 -3.155012 -13.910834 37.002811 5.162795 -16.616164 -4.121088 -0.673100 -5.246200 14.612000 2.656418 0.042513 -0.221544 0.486672 -0.082896 -1.311459 -1.492780 -0.046448 3.831454 -6.211243 -1.948857 -3.193470 8.693486 -2.988592 -6.442929 3.391400 -1.580000 -3.490100 -8.821384 -8.378757 1.546902 -70.438785 -8.191998 41.646607 16.276792 -26.948066 -5.433367 0.856640 1.319688 3.852754 21.618471 -21.280331 -8.432000 -7.125000 0.000000 0.000000 -5.070900 5.760800 4.554600 11.368951 7.763053 1.675792 63.892848 8.433231 25.242953 -15.809943 27.239745 -6.073737 2.689500 0.383998 4.005325 -30.716016 -25.930783 16.010100 7.125000 0.000000 0.000000 -4.239200 -60.033900 1.556800 
23.306845 17.724958 0.260779 -112.493471 -87.771623 120.787058 -6.074952 -4.591720 -0.171814 -4.034807 0.011931 -13.434700 2.046919 12.743285 33.133769 -4.086606 12.725026 -6.193617 1.426900 -7.553600 -21.366100 4.205804 5.819651 -3.761828 1.081194 9.210154 -26.824075 -3.141956 -13.820929 36.689179 5.259087 -16.891496 -3.309711 -0.498800 -4.527900 12.566800 1.630993 0.068101 -0.461711 0.357172 0.014528 -1.336008 -1.242667 -0.024520 3.929888 -6.387429 -1.928887 -3.330554 8.531801 -2.952549 -6.422895 3.365800 -1.544400 -3.462700 -8.827361 -8.374958 1.562217 -70.075526 -8.267588 41.075892 16.510252 -27.182131 -5.571463 0.820344 1.341552 4.035625 22.366291 -21.064338 -8.710300 -7.125000 0.000000 0.000000 -4.559400 5.828100 4.086100 11.300326 7.754840 1.645140 64.617633 8.349226 26.259642 -15.932123 27.360874 -6.050691 2.597612 -0.015543 6.672569 -32.622851 -23.430297 15.451300 7.125000 0.000000 0.000000 -6.924900 -57.375200 2.105600 
